PathFileType	4	(X/Y/Z)	F:\MotionCapture\20160217\3\Generated_files\EMG_Fprce_test03-Dynamic.trc
DataRate	CameraRate	NumFrames	NumMarkers	Units	OrigDataRate	OrigDataStartFrame	OrigNumFrames
120.00	120.00	       6	39	mm	120.00	384	       766
Frame#	Time	Top.Head			Front.Head			Rear.Head			R.Shoulder			R.Offset			R.Elbow			R.Wrist			L.Shoulder			L.Elbow			L.Wrist			R.ASIS			L.ASIS			V.Sacral			R.Thigh			R.Knee			R.Shank			R.Ankle			R.Heel			R.Toe			L.Thigh			L.Knee			L.Shank			L.Ankle			L.Heel			L.Toe			R1			R2			R3			R4			R5			R6			R7			L1			L2			L3			L4			L5			L6			L7			V_Mid_ASIS			V_Pelvis_Origin			V_R.Hip_JC			V_L.Hip_JC			V_R.Knee_JC			V_L.Knee_JC			V_R.Ankle_JC			V_L.Ankle_JC			V_Mid_Hip			V_Mid_Shoulder			V_R.Hand			V_L.Hand			V_R.Toe_Offset_Static			V_L.Toe_Offset_Static			V_R.Toe_Offset			V_L.Toe_Offset			
		X1	Y1	Z1	X2	Y2	Z2	X3	Y3	Z3	X4	Y4	Z4	X5	Y5	Z5	X6	Y6	Z6	X7	Y7	Z7	X8	Y8	Z8	X9	Y9	Z9	X10	Y10	Z10	X11	Y11	Z11	X12	Y12	Z12	X13	Y13	Z13	X14	Y14	Z14	X15	Y15	Z15	X16	Y16	Z16	X17	Y17	Z17	X18	Y18	Z18	X19	Y19	Z19	X20	Y20	Z20	X21	Y21	Z21	X22	Y22	Z22	X23	Y23	Z23	X24	Y24	Z24	X25	Y25	Z25	X26	Y26	Z26	X27	Y27	Z27	X28	Y28	Z28	X29	Y29	Z29	X30	Y30	Z30	X31	Y31	Z31	X32	Y32	Z32	X33	Y33	Z33	X34	Y34	Z34	X35	Y35	Z35	X36	Y36	Z36	X37	Y37	Z37	X38	Y38	Z38	X39	Y39	Z39	

384	3.192	-1018.39801	193.77969	1701.72424	-1133.98718	183.26927	1625.80603	-913.50861	192.94974	1625.65869	-966.56885	380.38257	1388.76587	-855.38049	94.93391	1250.55542	-866.13049	461.37573	1078.11145	-892.20697	484.95319	816.61322	-1019.89209	-22.23841	1400.69067	-1100.14685	-132.21748	1091.80640	-1324.96265	-66.59448	982.00793	-1063.47632	306.04202	927.73682	-1066.21204	17.49217	907.86340	-840.00507	163.00502	912.26807	-1184.11426	261.76453	593.30396	-1151.93982	300.21625	469.66800	-1162.71484	220.59955	235.52310	-1117.17395	286.36383	68.83296	-1050.46338	221.97630	40.34738	-1260.97632	276.18262	40.45282	-1089.80310	24.13589	579.18976	-968.35791	-36.12800	432.50729	-875.99426	31.64551	317.91776	-611.59625	-16.90807	234.32631	-593.45142	54.29216	278.00928	-611.45819	-27.48448	91.05588	-1305.62915	258.90759	37.92876	-1268.60046	238.21217	44.02931	-1172.04529	197.42659	51.35875	-1097.99805	192.30107	38.04018	-1080.43469	266.55655	40.14071	-1152.83044	297.52170	35.85328	-1218.26575	316.74359	36.34227	-625.82526	-11.89716	48.90432	-624.07208	6.37682	76.20325	-632.33380	59.99473	159.10921	-610.71796	76.99291	236.55214	-585.87537	10.56225	258.09808	-585.05078	-30.75746	188.13925	-591.85217	-49.05032	128.97415	
385	3.200	-1030.78516	195.25365	1704.77600	-1146.57678	184.05238	1628.84106	-926.83551	194.82147	1629.13745	-979.54236	381.79208	1391.73059	-867.33362	97.51875	1253.34595	-882.67822	463.58002	1080.00220	-916.42352	486.02176	819.32141	-1031.52844	-21.21033	1403.75647	-1106.30005	-131.07492	1093.04663	-1328.81970	-67.46843	976.70605	-1074.75232	307.59930	930.10028	-1078.36597	19.26816	911.50610	-851.82111	164.77373	915.48999	-1190.56982	262.97562	592.91504	-1155.45154	301.99786	469.30728	-1165.09875	221.68011	235.27020	-1116.76563	286.62643	68.73723	-1050.39990	221.91927	40.43247	-1260.97937	276.48685	40.38258	-1109.58496	27.85999	583.87256	-991.80042	-34.36185	435.09698	-899.42535	34.43433	320.85468	-636.02606	-14.05405	238.22191	-615.94275	58.47587	279.56241	-638.35535	-28.76305	95.55372	-1307.06067	258.68173	39.26970	-1268.59497	238.46104	44.13725	-1171.98621	197.64647	51.40034	-1098.09448	192.31325	38.24942	-1080.46838	266.26660	40.15630	-1151.82434	297.31546	35.12590	-1218.03149	317.14120	36.10366	-652.20398	-13.83594	52.22757	-649.96161	5.68597	79.62103	-657.28894	61.44027	162.03479	-633.49725	79.97485	237.87686	-608.79950	14.18598	260.93768	-610.60773	-28.81493	192.68690	-619.34344	-49.03321	133.51218																																																	3756.28564	-1539.32458	-404.18784	
386	3.208	-1043.21484	196.67262	1708.01965	-1158.86206	184.80115	1631.82776	-937.85541	196.54817	1632.39233	-993.00018	383.07104	1394.99304	-879.91992	99.23911	1256.38342	-900.90924	466.32339	1081.59558	-939.93683	487.63724	821.60907	-1042.82263	-20.29963	1406.70483	-1112.76965	-130.47241	1094.61877	-1332.30652	-69.11677	971.12671	-1086.49963	309.26111	932.73566	-1090.81616	20.81251	915.03796	-862.95325	165.94194	919.76990	-1196.30908	264.01297	591.71399	-1157.98804	303.24887	468.41577	-1166.81104	223.04836	234.81686	-1116.47583	286.80704	68.67662	-1050.42749	221.80698	40.56748	-1260.84460	276.84708	40.22896	-1129.07434	31.69685	588.86414	-1016.30750	-32.91779	438.37683	-923.47852	37.07626	323.61407	-661.01343	-11.76939	240.20210	-638.14227	61.41138	280.63980	-667.38464	-28.67968	98.04049	-1307.16260	258.97556	39.14677	-1269.31799	238.42451	44.96990	-1172.01892	197.81978	51.49775	-1098.13818	192.42952	38.39831	-1080.69702	266.01044	39.95187	-1151.96606	297.29575	35.07957	-1217.80017	317.59848	35.81438	-680.85663	-15.85963	54.81007	-678.56232	4.82506	82.05255	-682.30450	63.30118	163.87694	-656.73560	82.63579	239.04366	-632.48999	16.77293	262.15887	-637.83173	-27.32631	194.82907	-647.35541	-48.22090	135.86334																																																	4016.28638	-1666.75696	744.49341	
387	3.217	-1055.68542	197.82617	1711.00000	-1171.45129	185.42915	1634.75623	-951.16357	198.17032	1635.55249	-1006.22192	383.92725	1398.18542	-892.16003	101.67543	1259.79309	-918.41211	469.13531	1083.58069	-964.66638	488.97714	824.67957	-1053.90503	-19.85228	1409.58411	-1118.39087	-129.68776	1095.89746	-1335.06580	-70.33497	965.69995	-1097.80615	310.64105	934.88141	-1102.89600	21.86555	918.96826	-875.16931	167.02852	923.25238	-1202.34216	265.08887	590.56073	-1161.25598	305.00351	468.40686	-1168.57507	224.03749	234.69707	-1116.27417	286.89197	68.68107	-1050.65271	221.49835	40.73957	-1260.77783	277.02808	40.13186	-1148.49426	34.80312	594.02435	-1039.63916	-30.63035	441.78961	-947.93512	39.33389	326.62827	-685.48999	-9.13466	240.93663	-660.27716	63.88062	280.07846	-697.67004	-27.58033	99.44491	-1307.38806	259.22122	39.08430	-1269.31836	238.59396	44.92033	-1172.11975	197.92482	51.54388	-1098.33472	192.43257	38.63129	-1080.79871	265.90295	40.09382	-1151.96667	297.37488	34.96004	-1217.63049	317.94168	35.63075	-711.60114	-16.17850	55.99976	-708.96680	5.37462	83.61609	-709.34381	65.05309	165.14438	-679.54382	85.15868	239.01320	-656.30017	18.91327	261.95197	-664.35809	-25.62804	194.77780	-677.07465	-46.76803	136.70200																																																	4016.90015	-1670.67725	753.63666	-1283.45276	268.29132	39.53531	
388	3.225	-1068.01685	199.01973	1713.92065	-1183.43433	185.98032	1637.72839	-963.90186	199.65369	1638.66150	-1019.75818	385.29111	1401.51294	-903.85638	103.71369	1262.54712	-935.71857	471.43652	1085.69336	-989.11444	490.45917	827.89557	-1064.87854	-19.21166	1412.56506	-1124.43579	-129.31650	1097.48486	-1337.27832	-71.62568	959.69080	-1109.19556	312.19992	937.26379	-1113.76184	22.36162	921.96552	-887.31720	168.73453	926.77576	-1207.52942	266.35645	589.38892	-1164.10547	305.69745	468.29346	-1169.88464	224.58456	234.40877	-1116.11951	287.04556	68.64140	-1050.75867	221.37952	41.10184	-1260.75830	277.11374	39.99289	-1167.94226	37.55788	599.60101	-1062.72974	-28.55479	445.59061	-972.71796	41.39806	329.34439	-711.41010	-6.96414	240.86586	-682.11389	65.97014	278.76498	-731.65704	-26.61341	100.85458	-1307.40601	259.25461	38.95224	-1269.28687	238.76120	44.88403	-1172.07764	197.97760	51.56101	-1098.43311	192.47169	38.89302	-1080.54456	265.82962	40.17485	-1151.93335	297.43005	34.96084	-1217.64807	318.13522	35.53888	-744.61243	-14.66120	56.21724	-741.81366	6.69162	84.69120	-736.78363	67.59314	165.69019	-703.53680	87.84668	238.07639	-680.53180	21.14153	260.29102	-692.44147	-24.17017	193.87912	-707.34271	-45.18593	136.55774																																																	-1282.64246	268.84988	39.56501	
389	3.233	-1080.33020	200.14249	1716.83411	-1195.63232	186.60773	1640.55164	-975.61115	201.24663	1641.37866	-1033.32959	386.43491	1404.69849	-916.47986	106.56853	1264.91687	-953.74884	474.26395	1087.54663	-1013.58618	491.84521	831.58057	-1075.81323	-18.84764	1415.48242	-1130.33716	-128.82721	1099.15100	-1338.89990	-73.46362	954.09918	-1120.26807	313.87610	939.29407	-1126.02344	23.90525	926.11017	-899.05518	169.17955	930.30658	-1212.87061	267.64929	588.34479	-1167.07312	306.19220	468.02396	-1170.93701	224.83452	234.50790	-1116.01440	287.18924	68.65153	-1050.61072	221.48340	41.24304	-1260.77844	277.30157	39.86061	-1186.75098	39.92435	605.18585	-1085.71448	-26.57742	449.10300	-997.98456	43.46093	331.81351	-737.38483	-4.66355	239.35614	-705.68365	67.18529	275.51556	-763.72009	-23.64964	100.03542	-1307.33252	259.28821	38.86250	-1269.22900	238.78230	44.87133	-1172.10925	198.02222	51.60825	-1098.41162	192.53583	39.05368	-1080.54358	265.76205	40.28402	-1151.90820	297.45407	34.96984	-1217.63831	318.26852	35.47275	-779.76428	-11.83218	55.68401	-774.62909	9.82246	84.36317	-764.63641	70.00352	165.87447	-729.33508	89.41029	236.13399	-706.18872	22.29518	257.42642	-719.71857	-21.87692	191.29080	-738.90314	-42.88156	134.64322	
